<?xml version="1.0" encoding="UTF-8"?>
<!DOCTYPE svg PUBLIC "-//W3C//DTD SVG 1.1//EN" "http://www.w3.org/Graphics/SVG/1.1/DTD/svg11.dtd">
<svg xmlns="http://www.w3.org/2000/svg" version="1.1" width="500px" height="500px" style="shape-rendering:geometricPrecision; text-rendering:geometricPrecision; image-rendering:optimizeQuality; fill-rule:evenodd; clip-rule:evenodd" xmlns:xlink="http://www.w3.org/1999/xlink">
<g><path style="opacity:1" fill="#607170" d="M 209.5,0.5 C 209.5,10.5 209.5,20.5 209.5,30.5C 149.833,30.5 90.1667,30.5 30.5,30.5C 30.5,20.5 30.5,10.5 30.5,0.5C 90.1667,0.5 149.833,0.5 209.5,0.5 Z"/></g>
<g><path style="opacity:1" fill="#4a5c5b" d="M 209.5,0.5 C 239.5,0.5 269.5,0.5 299.5,0.5C 299.5,10.5 299.5,20.5 299.5,30.5C 289.833,30.5 280.167,30.5 270.5,30.5C 250.167,30.5 229.833,30.5 209.5,30.5C 209.5,20.5 209.5,10.5 209.5,0.5 Z"/></g>
<g><path style="opacity:1" fill="#607170" d="M 30.5,30.5 C 30.5,80.1667 30.5,129.833 30.5,179.5C 20.5,179.5 10.5,179.5 0.5,179.5C 0.5,129.833 0.5,80.1667 0.5,30.5C 10.5,30.5 20.5,30.5 30.5,30.5 Z"/></g>
<g><path style="opacity:1" fill="#fefffe" d="M 30.5,30.5 C 90.1667,30.5 149.833,30.5 209.5,30.5C 229.833,30.5 250.167,30.5 270.5,30.5C 270.5,40.5 270.5,50.5 270.5,60.5C 260.167,60.5 249.833,60.5 239.5,60.5C 179.833,60.5 120.167,60.5 60.5,60.5C 60.5,80.5 60.5,100.5 60.5,120.5C 60.5,160.5 60.5,200.5 60.5,240.5C 60.5,250.167 60.5,259.833 60.5,269.5C 50.5,269.5 40.5,269.5 30.5,269.5C 30.5,239.5 30.5,209.5 30.5,179.5C 30.5,129.833 30.5,80.1667 30.5,30.5 Z"/></g>
<g><path style="opacity:1" fill="#e9eae9" d="M 270.5,30.5 C 280.167,30.5 289.833,30.5 299.5,30.5C 299.5,60.5 299.5,90.5 299.5,120.5C 289.833,120.5 280.167,120.5 270.5,120.5C 270.5,100.5 270.5,80.5 270.5,60.5C 270.5,50.5 270.5,40.5 270.5,30.5 Z"/></g>
<g><path style="opacity:1" fill="#2a2e2d" d="M 299.5,30.5 C 309.5,30.5 319.5,30.5 329.5,30.5C 329.5,90.5 329.5,150.5 329.5,210.5C 319.5,210.5 309.5,210.5 299.5,210.5C 299.5,180.5 299.5,150.5 299.5,120.5C 299.5,90.5 299.5,60.5 299.5,30.5 Z"/></g>
<g><path style="opacity:1" fill="#afd7fe" d="M 239.5,60.5 C 239.5,70.1667 239.5,79.8333 239.5,89.5C 229.5,89.5 219.5,89.5 209.5,89.5C 209.5,99.8333 209.5,110.167 209.5,120.5C 199.833,120.5 190.167,120.5 180.5,120.5C 140.5,120.5 100.5,120.5 60.5,120.5C 60.5,100.5 60.5,80.5 60.5,60.5C 120.167,60.5 179.833,60.5 239.5,60.5 Z"/></g>
<g><path style="opacity:1" fill="#4679b6" d="M 239.5,60.5 C 249.833,60.5 260.167,60.5 270.5,60.5C 270.5,80.5 270.5,100.5 270.5,120.5C 270.5,130.167 270.5,139.833 270.5,149.5C 260.167,149.5 249.833,149.5 239.5,149.5C 239.5,159.5 239.5,169.5 239.5,179.5C 229.5,179.5 219.5,179.5 209.5,179.5C 209.5,189.833 209.5,200.167 209.5,210.5C 199.833,210.5 190.167,210.5 180.5,210.5C 180.5,220.167 180.5,229.833 180.5,239.5C 170.167,239.5 159.833,239.5 149.5,239.5C 149.5,249.5 149.5,259.5 149.5,269.5C 119.833,269.5 90.1667,269.5 60.5,269.5C 60.5,259.833 60.5,250.167 60.5,240.5C 70.5,240.5 80.5,240.5 90.5,240.5C 90.5,230.5 90.5,220.5 90.5,210.5C 100.5,210.5 110.5,210.5 120.5,210.5C 120.5,200.5 120.5,190.5 120.5,180.5C 130.5,180.5 140.5,180.5 150.5,180.5C 150.5,170.5 150.5,160.5 150.5,150.5C 160.5,150.5 170.5,150.5 180.5,150.5C 180.5,140.5 180.5,130.5 180.5,120.5C 190.167,120.5 199.833,120.5 209.5,120.5C 209.5,110.167 209.5,99.8333 209.5,89.5C 219.5,89.5 229.5,89.5 239.5,89.5C 239.5,79.8333 239.5,70.1667 239.5,60.5 Z"/></g>
<g><path style="opacity:1" fill="#60a8f9" d="M 60.5,120.5 C 100.5,120.5 140.5,120.5 180.5,120.5C 180.5,130.5 180.5,140.5 180.5,150.5C 170.5,150.5 160.5,150.5 150.5,150.5C 150.5,160.5 150.5,170.5 150.5,180.5C 140.5,180.5 130.5,180.5 120.5,180.5C 120.5,190.5 120.5,200.5 120.5,210.5C 110.5,210.5 100.5,210.5 90.5,210.5C 90.5,220.5 90.5,230.5 90.5,240.5C 80.5,240.5 70.5,240.5 60.5,240.5C 60.5,200.5 60.5,160.5 60.5,120.5 Z"/></g>
<g><path style="opacity:1" fill="#cdcecd" d="M 270.5,120.5 C 280.167,120.5 289.833,120.5 299.5,120.5C 299.5,150.5 299.5,180.5 299.5,210.5C 289.833,210.5 280.167,210.5 270.5,210.5C 270.5,190.167 270.5,169.833 270.5,149.5C 270.5,139.833 270.5,130.167 270.5,120.5 Z"/></g>
<g><path style="opacity:1" fill="#345781" d="M 270.5,149.5 C 270.5,169.833 270.5,190.167 270.5,210.5C 250.167,210.5 229.833,210.5 209.5,210.5C 209.5,200.167 209.5,189.833 209.5,179.5C 219.5,179.5 229.5,179.5 239.5,179.5C 239.5,169.5 239.5,159.5 239.5,149.5C 249.833,149.5 260.167,149.5 270.5,149.5 Z"/></g>
<g><path style="opacity:1" fill="#2a2e2d" d="M 0.5,179.5 C 10.5,179.5 20.5,179.5 30.5,179.5C 30.5,209.5 30.5,239.5 30.5,269.5C 30.5,279.5 30.5,289.5 30.5,299.5C 30.5,339.833 30.5,380.167 30.5,420.5C 40.5,420.5 50.5,420.5 60.5,420.5C 60.5,430.167 60.5,439.833 60.5,449.5C 100.5,449.5 140.5,449.5 180.5,449.5C 190.167,449.5 199.833,449.5 209.5,449.5C 209.5,459.5 209.5,469.5 209.5,479.5C 149.833,479.5 90.1667,479.5 30.5,479.5C 30.5,469.5 30.5,459.5 30.5,449.5C 20.5,449.5 10.5,449.5 0.5,449.5C 0.5,359.5 0.5,269.5 0.5,179.5 Z"/></g>
<g><path style="opacity:1" fill="#fefffe" d="M 209.5,210.5 C 229.833,210.5 250.167,210.5 270.5,210.5C 280.167,210.5 289.833,210.5 299.5,210.5C 309.5,210.5 319.5,210.5 329.5,210.5C 379.5,210.5 429.5,210.5 479.5,210.5C 479.5,290.5 479.5,370.5 479.5,450.5C 469.833,450.5 460.167,450.5 450.5,450.5C 450.5,460.167 450.5,469.833 450.5,479.5C 440.167,479.5 429.833,479.5 419.5,479.5C 419.5,469.5 419.5,459.5 419.5,449.5C 429.5,449.5 439.5,449.5 449.5,449.5C 449.5,379.833 449.5,310.167 449.5,240.5C 429.833,240.5 410.167,240.5 390.5,240.5C 390.5,300.5 390.5,360.5 390.5,420.5C 380.167,420.5 369.833,420.5 359.5,420.5C 359.5,360.5 359.5,300.5 359.5,240.5C 339.833,240.5 320.167,240.5 300.5,240.5C 300.5,300.5 300.5,360.5 300.5,420.5C 290.167,420.5 279.833,420.5 269.5,420.5C 269.5,360.5 269.5,300.5 269.5,240.5C 249.833,240.5 230.167,240.5 210.5,240.5C 210.5,310.167 210.5,379.833 210.5,449.5C 220.5,449.5 230.5,449.5 240.5,449.5C 240.5,459.5 240.5,469.5 240.5,479.5C 230.167,479.5 219.833,479.5 209.5,479.5C 209.5,469.5 209.5,459.5 209.5,449.5C 199.833,449.5 190.167,449.5 180.5,449.5C 180.5,439.833 180.5,430.167 180.5,420.5C 180.5,410.5 180.5,400.5 180.5,390.5C 180.5,380.5 180.5,370.5 180.5,360.5C 180.5,350.167 180.5,339.833 180.5,329.5C 180.5,319.5 180.5,309.5 180.5,299.5C 180.5,289.5 180.5,279.5 180.5,269.5C 180.5,259.5 180.5,249.5 180.5,239.5C 180.5,229.833 180.5,220.167 180.5,210.5C 190.167,210.5 199.833,210.5 209.5,210.5 Z"/></g>
<g><path style="opacity:1" fill="#345781" d="M 180.5,239.5 C 180.5,249.5 180.5,259.5 180.5,269.5C 170.167,269.5 159.833,269.5 149.5,269.5C 149.5,259.5 149.5,249.5 149.5,239.5C 159.833,239.5 170.167,239.5 180.5,239.5 Z"/></g>
<g><path style="opacity:1" fill="#04af27" d="M 419.5,479.5 C 359.833,479.5 300.167,479.5 240.5,479.5C 240.5,469.5 240.5,459.5 240.5,449.5C 230.5,449.5 220.5,449.5 210.5,449.5C 210.5,379.833 210.5,310.167 210.5,240.5C 230.167,240.5 249.833,240.5 269.5,240.5C 269.5,300.5 269.5,360.5 269.5,420.5C 279.833,420.5 290.167,420.5 300.5,420.5C 300.5,360.5 300.5,300.5 300.5,240.5C 320.167,240.5 339.833,240.5 359.5,240.5C 359.5,300.5 359.5,360.5 359.5,420.5C 369.833,420.5 380.167,420.5 390.5,420.5C 390.5,360.5 390.5,300.5 390.5,240.5C 410.167,240.5 429.833,240.5 449.5,240.5C 449.5,310.167 449.5,379.833 449.5,449.5C 439.5,449.5 429.5,449.5 419.5,449.5C 419.5,459.5 419.5,469.5 419.5,479.5 Z"/></g>
<g><path style="opacity:1" fill="#e9eae9" d="M 30.5,269.5 C 40.5,269.5 50.5,269.5 60.5,269.5C 90.1667,269.5 119.833,269.5 149.5,269.5C 149.5,279.5 149.5,289.5 149.5,299.5C 119.833,299.5 90.1667,299.5 60.5,299.5C 50.5,299.5 40.5,299.5 30.5,299.5C 30.5,289.5 30.5,279.5 30.5,269.5 Z"/></g>
<g><path style="opacity:1" fill="#cdcecd" d="M 149.5,269.5 C 159.833,269.5 170.167,269.5 180.5,269.5C 180.5,279.5 180.5,289.5 180.5,299.5C 170.167,299.5 159.833,299.5 149.5,299.5C 149.5,289.5 149.5,279.5 149.5,269.5 Z"/></g>
<g><path style="opacity:1" fill="#fea9b8" d="M 30.5,299.5 C 40.5,299.5 50.5,299.5 60.5,299.5C 60.5,309.5 60.5,319.5 60.5,329.5C 100.5,329.5 140.5,329.5 180.5,329.5C 180.5,339.833 180.5,350.167 180.5,360.5C 140.5,360.5 100.5,360.5 60.5,360.5C 60.5,370.5 60.5,380.5 60.5,390.5C 60.5,400.5 60.5,410.5 60.5,420.5C 50.5,420.5 40.5,420.5 30.5,420.5C 30.5,380.167 30.5,339.833 30.5,299.5 Z"/></g>
<g><path style="opacity:1" fill="#d9102b" d="M 60.5,299.5 C 90.1667,299.5 119.833,299.5 149.5,299.5C 159.833,299.5 170.167,299.5 180.5,299.5C 180.5,309.5 180.5,319.5 180.5,329.5C 140.5,329.5 100.5,329.5 60.5,329.5C 60.5,319.5 60.5,309.5 60.5,299.5 Z"/></g>
<g><path style="opacity:1" fill="#d9102b" d="M 180.5,360.5 C 180.5,370.5 180.5,380.5 180.5,390.5C 140.5,390.5 100.5,390.5 60.5,390.5C 60.5,380.5 60.5,370.5 60.5,360.5C 100.5,360.5 140.5,360.5 180.5,360.5 Z"/></g>
<g><path style="opacity:1" fill="#f88599" d="M 60.5,390.5 C 100.5,390.5 140.5,390.5 180.5,390.5C 180.5,400.5 180.5,410.5 180.5,420.5C 140.5,420.5 100.5,420.5 60.5,420.5C 60.5,410.5 60.5,400.5 60.5,390.5 Z"/></g>
<g><path style="opacity:1" fill="#650a18" d="M 60.5,420.5 C 100.5,420.5 140.5,420.5 180.5,420.5C 180.5,430.167 180.5,439.833 180.5,449.5C 140.5,449.5 100.5,449.5 60.5,449.5C 60.5,439.833 60.5,430.167 60.5,420.5 Z"/></g>
</svg>
