<svg width="400" height="350" viewBox="0 0 400 350" fill="none" xmlns="http://www.w3.org/2000/svg">
<path d="M399.396 191.569V109.468C399.396 49.0105 349.377 0 287.677 0H199.698H111.719C50.0183 0 0 49.0105 0 109.468V191.569C0 232.838 23.3061 268.773 57.7252 287.426L175.863 344.392C183.38 348.033 191.53 349.902 199.698 350C207.865 349.902 216.016 348.033 223.533 344.392L341.671 287.426C376.09 268.773 399.396 232.838 399.396 191.569Z" fill="white"/>
<path opacity="0.9" d="M233.038 234.507C265.467 210.813 309.767 184.342 309.767 134.667C309.767 84.992 249.146 49.7633 199.551 97.5204L187.231 120.352C185.221 124.078 184.215 125.941 184.706 127.771C185.195 129.6 187.025 130.811 190.683 133.233L211.796 147.21C216.379 150.244 218.669 151.761 218.962 153.993C219.255 156.226 217.422 158.208 213.758 162.17L195.172 182.267C192.021 185.675 190.445 187.378 190.527 189.378C190.61 191.378 192.323 192.966 195.746 196.138L206.159 205.79C208.315 207.788 209.393 208.787 209.78 210.083C210.168 211.38 209.799 212.75 209.059 215.491L199.551 250.74C210.572 250.74 221.594 242.868 233.038 234.507Z" fill="#0971F7"/>
<path d="M159.809 227.723C131.458 205.623 98.1582 179.666 98.1582 134.667C98.1582 84.992 153.69 49.7633 199.121 97.5204C199.121 97.5204 210.24 107.609 215.694 115.42C221.607 123.89 224.61 129.184 227.447 139.117C230.865 151.079 230.616 158.548 229.303 170.92C228.3 180.373 226.234 185.445 223.736 194.617C220.984 204.716 219.657 210.497 215.694 220.184C210.553 232.748 199.121 250.74 199.121 250.74C189.025 250.74 178.929 242.868 168.446 234.507C165.649 232.276 162.756 230.021 159.809 227.723Z" fill="url(#paint0_linear_65_61)"/>
<defs>
<linearGradient id="paint0_linear_65_61" x1="163.731" y1="74.8867" x2="163.731" y2="250.74" gradientUnits="userSpaceOnUse">
<stop stop-color="#FF001D"/>
<stop offset="1" stop-color="#E38C8C"/>
</linearGradient>
</defs>
</svg>
